<?xml version="1.0" standalone="no"?>
<!DOCTYPE svg PUBLIC "-//W3C//DTD SVG 20010904//EN"
 "http://www.w3.org/TR/2001/REC-SVG-20010904/DTD/svg10.dtd">
<svg version="1.0" xmlns="http://www.w3.org/2000/svg"
 width="512.000000pt" height="512.000000pt" viewBox="0 0 512.000000 512.000000"
 preserveAspectRatio="xMidYMid meet">
<metadata>
Created by potrace 1.16, written by Peter Selinger 2001-2019
</metadata>
<g transform="translate(0.000000,512.000000) scale(0.100000,-0.100000)"
fill="#000000" stroke="none">
<path d="M3160 4503 c-42 -15 -638 -329 -657 -346 -12 -10 -24 -29 -27 -40 -4
-16 -30 -33 -103 -64 -159 -68 -649 -290 -760 -343 -95 -46 -105 -54 -133
-103 -43 -73 -39 -133 16 -214 21 -32 40 -61 42 -64 2 -4 -10 -10 -25 -14 -48
-12 -587 -197 -615 -211 -17 -9 -28 -24 -30 -40 -3 -23 -13 -30 -74 -53 -87
-31 -114 -54 -114 -94 0 -35 78 -118 403 -425 233 -221 223 -198 113 -254 -58
-29 -60 -30 -93 -14 -38 18 -45 16 -125 -41 -48 -35 -64 -72 -37 -88 6 -4 -40
-35 -103 -69 -195 -107 -218 -125 -218 -178 1 -37 17 -58 166 -220 145 -158
340 -377 454 -508 312 -361 366 -418 410 -430 52 -14 82 -3 254 98 83 49 240
139 349 201 186 106 200 112 229 102 66 -23 73 -21 493 169 154 69 291 131
305 136 20 9 30 7 51 -9 15 -10 47 -21 72 -24 39 -5 62 2 178 55 137 62 596
265 774 343 111 48 168 93 185 145 23 67 12 84 -281 465 l-128 165 44 120 c23
65 75 207 115 314 162 441 190 523 190 556 0 41 -32 114 -63 141 -12 11 -130
95 -262 188 -292 205 -728 521 -810 587 -73 59 -135 79 -185 61z m315 -314
c282 -217 450 -338 689 -499 193 -129 201 -136 204 -170 2 -24 -21 -96 -74
-235 -41 -110 -114 -301 -160 -425 -143 -383 -132 -359 -177 -391 -22 -16 -45
-28 -51 -26 -13 4 -151 199 -172 244 -15 31 -225 299 -328 418 -29 33 -73 86
-99 118 -26 33 -47 54 -47 49 0 -11 87 -126 160 -212 92 -109 278 -358 373
-500 83 -125 97 -152 97 -187 0 -51 -32 -86 -110 -120 -115 -51 -350 -158
-485 -220 -77 -36 -165 -77 -195 -90 -30 -14 -109 -50 -175 -81 -136 -63 -193
-73 -249 -47 -49 23 -77 61 -246 320 -155 239 -268 404 -602 882 -337 483
-336 481 -324 548 12 64 44 87 253 183 315 144 727 329 750 336 46 15 101 -12
149 -72 60 -75 362 -528 409 -614 78 -143 23 -77 -139 168 -93 139 -171 252
-174 250 -7 -8 55 -112 172 -286 60 -91 205 -313 322 -495 189 -294 398 -605
454 -675 13 -16 19 -20 19 -10 0 8 -13 31 -29 50 -17 19 -30 39 -30 46 0 12
92 54 118 54 9 0 27 -10 41 -22 21 -18 20 -16 -3 10 -22 24 -35 30 -50 26 -17
-6 -92 -38 -118 -52 -8 -4 -42 58 -35 64 2 2 21 11 43 19 33 13 34 15 9 10
-16 -2 -40 -7 -52 -11 -17 -5 -27 3 -57 48 l-36 53 35 7 c60 13 75 25 74 61
-2 30 -2 30 -6 4 -5 -30 -22 -42 -73 -52 -39 -7 -49 0 -88 65 l-21 36 55 33
c54 32 56 33 77 14 11 -10 6 1 -13 25 -18 23 -36 42 -39 42 -3 0 0 -5 7 -12
19 -19 15 -24 -40 -58 -50 -31 -52 -31 -66 -14 -38 52 -37 56 23 87 63 33 62
31 16 91 l-42 56 -51 -35 c-29 -19 -52 -33 -53 -32 -1 1 -9 14 -18 29 l-16 26
45 27 c31 18 42 30 36 38 -94 121 -116 147 -128 147 -8 0 -28 -7 -43 -15 -28
-14 -29 -14 -53 23 -23 34 -46 142 -31 142 4 0 20 -15 35 -32 31 -35 28 -21
-6 25 -11 15 -26 25 -33 23 -8 -3 -23 13 -38 42 -13 26 -34 61 -45 79 l-21 32
26 7 c15 4 44 1 66 -5 33 -10 57 -34 156 -158 65 -80 179 -217 253 -304 150
-174 276 -341 310 -408 12 -25 43 -76 68 -113 39 -59 47 -67 60 -55 7 8 16 32
19 54 6 48 -19 82 -114 150 -56 40 -208 210 -198 222 2 1 81 -44 175 -102 164
-102 171 -105 180 -84 4 12 29 72 55 132 112 267 246 606 243 617 -2 6 -36
-70 -75 -168 -88 -220 -232 -566 -238 -573 -3 -2 -14 4 -26 15 -16 14 -19 26
-14 51 8 42 -11 44 -20 2 -5 -21 -10 -28 -17 -21 -9 9 24 124 58 208 3 6 -4
14 -15 17 -17 4 -24 -8 -53 -88 -18 -51 -37 -92 -43 -91 -11 1 -11 11 -1 66 6
34 6 34 -16 -10 -19 -38 -23 -42 -26 -22 -4 26 -22 30 -22 5 0 -13 -3 -14 -12
-5 -9 9 -1 44 36 157 27 79 48 148 48 152 -1 4 -7 9 -15 11 -11 2 -29 -37 -63
-137 -27 -78 -54 -141 -61 -141 -8 0 -3 27 18 81 16 45 32 85 34 90 3 4 1 10
-4 13 -5 4 -19 -20 -31 -51 -35 -99 -42 -113 -52 -113 -5 0 -11 6 -13 13 -5
12 17 127 30 160 4 9 3 17 -2 17 -6 0 -21 -36 -34 -80 -13 -44 -27 -80 -31
-80 -16 0 -7 54 23 152 26 82 29 102 18 109 -18 11 -21 6 -54 -86 -51 -144
-44 -131 -60 -108 -13 18 -12 28 5 79 22 62 25 88 11 80 -5 -3 -17 -33 -27
-66 -11 -37 -21 -57 -27 -51 -8 8 14 99 39 166 4 9 1 15 -8 15 -9 0 -23 -27
-37 -71 -16 -49 -26 -68 -33 -61 -7 7 3 48 32 132 31 86 40 124 32 132 -18 18
-30 0 -67 -112 l-37 -110 -20 25 c-20 25 -20 25 0 84 19 56 19 71 1 71 -4 0
-15 -23 -25 -50 -16 -45 -20 -49 -33 -35 -13 13 -11 27 19 122 39 119 41 128
22 128 -8 0 -30 -41 -52 -99 -20 -54 -40 -94 -44 -88 -3 6 -2 22 4 37 12 33
12 35 0 35 -5 0 -10 -9 -10 -20 0 -30 -14 -24 -44 18 -25 37 -26 40 -12 79 13
38 12 53 -4 53 -3 0 -12 -16 -19 -36 -12 -32 -14 -34 -26 -18 -8 12 -10 26 -5
39 5 12 5 27 0 34 -5 9 -10 4 -14 -15 -6 -22 -9 -25 -17 -13 -5 7 -9 25 -9 39
-1 23 -2 23 -11 7 -10 -18 -14 -17 -48 15 -52 50 -172 132 -191 131 -8 -1 -34
27 -58 61 -24 33 -70 99 -103 145 -61 87 -71 119 -43 142 32 26 519 278 539
279 11 0 115 -73 230 -161z m-464 -560 c33 -22 59 -42 57 -44 -2 -2 -20 -5
-41 -6 -35 -3 -39 -1 -73 50 -42 62 -34 62 57 0z m-1412 -385 c18 -25 31 -48
29 -49 -2 -2 -64 -28 -138 -59 -161 -65 -411 -173 -418 -181 -7 -7 43 -77 76
-106 19 -17 15 -9 -13 26 -21 28 -42 55 -47 61 -13 18 547 254 562 237 8 -10
178 -251 249 -352 28 -41 51 -77 51 -81 0 -3 -16 -12 -36 -19 -67 -24 -265
-114 -261 -118 5 -4 210 78 268 108 35 17 37 17 51 1 13 -16 146 -212 162
-239 5 -9 -35 -34 -126 -80 -73 -37 -136 -68 -141 -68 -4 0 -16 13 -27 30
l-19 29 72 34 c40 18 99 45 132 59 33 14 65 29 70 35 14 14 -65 -17 -181 -72
l-100 -47 -25 36 c-13 20 -25 39 -27 42 -1 3 61 35 139 70 77 35 136 65 131
67 -11 3 -219 -89 -258 -114 -20 -14 -23 -13 -44 13 -40 52 -7 -2 63 -99 38
-54 71 -98 73 -98 2 0 67 31 144 70 l140 70 86 -133 c47 -72 102 -157 122
-187 20 -30 40 -61 45 -67 12 -17 -230 -138 -247 -123 -7 5 -26 29 -44 54
l-32 44 33 20 c19 11 49 25 68 31 45 16 151 74 119 65 -14 -4 -71 -28 -127
-55 l-103 -48 -20 26 c-26 33 -26 35 11 56 18 10 29 20 26 23 -3 4 -20 -4 -37
-16 l-30 -22 -20 24 c-27 32 -25 37 18 54 81 34 172 77 168 81 -3 3 -52 -16
-111 -42 -58 -27 -107 -46 -109 -44 -1 2 -13 19 -25 37 l-22 32 125 62 c70 34
124 63 123 65 -7 6 -257 -116 -257 -125 0 -11 238 -336 250 -340 5 -2 64 24
132 57 l123 61 20 -25 c11 -14 28 -38 37 -53 l17 -29 -125 -57 c-69 -31 -129
-54 -135 -50 -5 3 23 -41 63 -98 41 -57 78 -114 85 -128 18 -40 72 -110 86
-110 16 0 238 102 233 108 -3 2 -57 -20 -121 -49 -112 -51 -118 -52 -131 -34
-13 17 -4 23 142 89 86 38 153 71 148 73 -5 2 -77 -28 -159 -66 l-150 -69 -22
31 c-13 17 -23 34 -23 37 0 3 52 30 115 59 64 30 114 56 111 58 -2 3 -55 -19
-117 -48 l-112 -52 -19 23 c-10 12 -18 28 -18 35 0 7 54 36 120 65 l119 52 45
-39 c26 -23 66 -46 91 -53 55 -15 82 -9 211 50 47 22 89 40 93 40 9 0 135
-189 130 -194 -2 -2 -94 -45 -204 -94 -267 -121 -392 -180 -379 -181 6 -1 76
29 155 65 79 36 212 95 294 130 l150 65 22 -28 c13 -15 23 -31 23 -35 0 -10
-51 -35 -371 -182 -152 -69 -286 -126 -298 -126 -45 0 -87 28 -128 86 -23 32
-213 307 -422 609 -208 303 -405 586 -438 630 -67 91 -82 121 -76 146 6 21 66
51 212 105 57 21 99 40 93 42 -17 5 -435 -157 -452 -175 -8 -9 29 2 86 25 l52
21 -15 -30 c-17 -35 -8 -74 39 -156 18 -32 27 -60 23 -72 -3 -12 3 -29 18 -47
54 -66 532 -773 525 -778 -1 -1 -17 -8 -34 -15 -44 -17 -89 3 -140 65 -23 27
-148 193 -279 369 -130 176 -245 326 -254 333 -9 7 -15 18 -13 23 1 6 -2 8 -8
4 -17 -10 -555 497 -555 524 0 10 20 23 61 37 l60 22 110 -122 c61 -66 140
-155 175 -196 35 -41 107 -123 160 -181 108 -118 266 -327 467 -614 125 -180
183 -258 166 -225 -4 8 -66 101 -137 205 -180 263 -363 507 -493 656 -60 69
-176 203 -259 298 -82 95 -155 182 -162 194 -26 47 -21 51 170 121 100 36 241
88 312 115 72 27 137 49 146 50 8 1 30 -20 48 -45z m1670 -52 l20 -29 -35 -16
c-44 -21 -39 -22 -64 13 l-21 29 28 15 c39 21 49 20 72 -12z m57 -77 c15 -20
25 -37 23 -39 -21 -16 -68 -46 -72 -46 -6 0 -59 81 -55 85 8 6 64 34 70 35 4
0 19 -16 34 -35z m132 -149 l31 -43 -48 -27 c-27 -14 -53 -26 -59 -26 -9 0
-52 63 -52 76 0 6 81 64 90 64 4 0 21 -20 38 -44z m456 -324 c20 -22 28 -40
28 -67 0 -67 -16 -60 -75 33 -78 123 -81 132 -26 95 24 -17 57 -45 73 -61z
m352 -323 c197 -255 194 -251 200 -290 11 -66 -2 -73 -496 -283 -250 -106
-486 -207 -524 -225 -71 -32 -114 -38 -145 -21 -19 9 -221 301 -221 318 0 5
11 14 25 20 24 11 27 8 82 -79 90 -141 111 -168 136 -174 17 -5 89 22 248 91
123 53 270 116 326 140 55 23 112 48 125 55 12 7 25 13 28 12 3 -1 52 20 110
46 70 31 105 52 104 62 -1 9 -70 102 -154 208 -83 106 -150 194 -148 195 1 1
15 7 30 14 27 11 28 9 192 -204 91 -119 166 -211 166 -205 0 10 -166 235 -263
356 l-57 70 23 17 c21 18 23 17 50 -15 16 -17 90 -112 165 -209 75 -98 138
-175 140 -173 7 7 -29 57 -183 254 -106 136 -133 177 -124 187 6 8 15 14 18
14 4 0 70 -81 147 -181z m-167 -128 c83 -104 151 -193 151 -199 0 -5 -44 -28
-97 -51 l-98 -42 -23 28 c-12 15 -61 77 -107 136 l-85 108 30 25 c16 14 32 34
35 45 9 28 19 18 127 -121 50 -63 95 -117 101 -119 6 -2 -40 62 -101 142
l-112 146 6 45 c4 25 10 46 14 46 4 0 75 -85 159 -189z m-2747 42 c21 -20 38
-40 38 -44 0 -4 -19 -18 -42 -32 -105 -59 -336 -202 -366 -224 -63 -48 -24
-33 69 25 52 33 154 92 228 131 109 60 136 70 146 59 67 -74 185 -218 185
-225 0 -5 -48 -36 -106 -68 -58 -32 -153 -86 -211 -121 l-106 -64 -88 93 c-48
50 -84 95 -81 99 12 12 225 139 320 190 51 28 91 52 88 55 -13 13 -419 -225
-424 -248 -1 -8 37 -57 85 -108 97 -103 97 -103 169 -55 20 14 114 69 207 121
l171 96 18 -23 19 -23 -52 -29 c-29 -15 -54 -28 -56 -28 -2 0 -16 -8 -31 -19
-15 -10 -88 -53 -162 -95 -74 -41 -141 -80 -149 -85 -12 -8 -3 -22 43 -75 32
-36 65 -66 73 -66 20 0 302 148 407 213 l48 31 44 -50 c24 -27 43 -52 44 -55
0 -7 -94 -66 -212 -134 -37 -21 -66 -41 -63 -43 5 -5 205 109 251 144 31 23
32 23 49 4 29 -32 64 -39 129 -22 69 17 48 34 174 -143 119 -166 171 -242 174
-253 2 -6 -42 -34 -97 -63 -55 -28 -188 -101 -295 -162 -234 -133 -242 -137
-256 -137 -6 0 -121 120 -255 267 -315 346 -424 464 -603 653 -81 85 -149 166
-153 178 -8 32 12 49 138 116 99 52 106 54 122 39 23 -23 21 -5 -3 35 -11 18
-20 36 -20 40 0 10 96 82 109 82 5 0 22 -7 38 -16 27 -16 30 -15 113 30 47 25
87 46 90 46 2 0 21 -17 42 -37z m2513 -118 c20 -25 38 -52 39 -61 1 -8 11 -21
22 -28 11 -8 41 -41 67 -75 48 -60 48 -61 25 -71 -13 -5 -171 -72 -351 -150
-271 -115 -332 -138 -348 -129 -26 13 -113 149 -102 159 9 9 173 80 183 80 4
0 22 -22 41 -50 19 -27 38 -50 42 -50 5 0 1 10 -7 22 -23 32 -20 44 14 58 28
11 33 10 55 -10 13 -13 22 -27 19 -31 -3 -5 0 -9 5 -9 17 0 13 19 -10 51 l-20
29 33 0 c60 0 65 12 29 69 -18 28 -38 51 -43 51 -6 0 -3 -11 6 -25 9 -14 23
-35 31 -48 8 -13 12 -26 9 -30 -14 -14 -81 8 -111 36 -41 39 -43 27 -3 -22
l29 -38 -34 -16 c-27 -13 -35 -13 -44 -3 -6 7 -8 16 -4 19 3 4 0 7 -8 7 -18 1
-84 90 -73 99 5 4 92 45 194 91 102 46 188 85 191 86 5 3 67 -71 146 -173 10
-13 17 -14 35 -4 13 6 15 9 6 7 -21 -6 -101 82 -93 102 3 7 1 11 -4 7 -5 -3
-23 13 -40 34 l-31 39 27 10 c16 6 31 11 34 11 4 1 23 -19 44 -44z m-484 -248
c8 -14 5 -19 -15 -27 -14 -5 -57 -23 -95 -39 -76 -32 -74 -33 -113 30 l-17 26
92 41 92 40 23 -26 c13 -15 27 -35 33 -45z m-2618 -54 c28 -32 101 -110 162
-173 61 -63 164 -175 230 -249 383 -429 545 -601 572 -607 17 -5 75 23 226
109 311 176 454 249 462 237 9 -14 16 -9 -105 -70 -58 -29 -205 -108 -327
-176 -267 -149 -264 -148 -306 -130 -30 12 -160 153 -442 480 -95 111 -298
337 -431 482 -61 66 -115 130 -118 142 -4 12 -1 31 6 44 l13 23 3 -27 c2 -16
25 -52 55 -85z m1772 60 c19 -27 35 -51 35 -54 0 -3 -56 -31 -125 -61 l-124
-56 -15 23 c-15 23 -15 24 54 61 38 21 68 40 65 42 -2 2 -34 -12 -72 -32 -54
-29 -70 -33 -79 -23 -29 29 -18 40 96 92 63 29 118 53 122 54 4 1 23 -20 43
-46z m-794 -90 l50 -61 -88 -50 c-48 -27 -151 -82 -227 -122 l-139 -73 -55 57
c-47 49 -53 59 -41 71 8 7 84 53 168 101 l155 87 42 -47 42 -48 32 17 c38 20
34 31 -5 13 -26 -12 -29 -10 -61 27 -18 22 -30 43 -28 47 9 14 78 48 93 45 7
-1 35 -30 62 -64z"/>
<path d="M2894 4133 c-52 -121 -74 -177 -65 -168 5 6 21 39 36 75 15 36 34 80
42 98 7 17 11 32 8 32 -2 0 -12 -17 -21 -37z"/>
<path d="M3080 4093 c1 -5 20 -22 43 -39 23 -16 57 -41 74 -54 18 -13 35 -21
39 -18 5 6 -136 118 -149 118 -4 0 -7 -3 -7 -7z"/>
<path d="M3055 4030 c-4 -7 -3 -15 1 -20 30 -26 235 -170 244 -170 24 0 7 29
-32 55 -24 16 -68 47 -98 70 -88 67 -107 78 -115 65z"/>
<path d="M3024 3969 c-8 -14 -9 -13 130 -113 107 -77 136 -91 136 -67 0 5 -52
45 -115 90 -63 45 -117 86 -120 91 -8 13 -22 13 -31 -1z"/>
<path d="M2534 3955 c-16 -12 -17 -14 -2 -15 23 0 48 11 48 21 0 14 -24 11
-46 -6z"/>
<path d="M3340 3936 c0 -9 18 -27 40 -41 22 -14 40 -31 40 -38 0 -7 -14 -53
-30 -102 -17 -49 -29 -93 -28 -97 5 -13 132 -97 140 -92 16 10 7 23 -44 55
-28 19 -55 37 -60 40 -4 3 8 50 27 105 l35 99 -29 25 c-16 14 -43 33 -60 43
-27 16 -31 16 -31 3z"/>
<path d="M2493 3905 c-3 -9 2 -22 13 -30 16 -11 23 -11 46 1 16 8 28 19 28 24
0 13 -13 13 -26 0 -8 -8 -15 -6 -24 5 -16 19 -29 19 -37 0z"/>
<path d="M3004 3905 c-4 -9 -5 -18 -3 -20 19 -18 242 -175 249 -175 25 0 5 32
-37 61 -27 18 -83 59 -126 91 -62 48 -78 56 -83 43z"/>
<path d="M2426 3888 c-34 -17 -37 -21 -24 -34 20 -21 68 3 68 34 0 12 -1 22
-2 21 -2 -1 -21 -10 -42 -21z"/>
<path d="M2110 3818 c-36 -16 -84 -38 -107 -49 -31 -13 -41 -23 -37 -34 9 -22
15 -20 130 32 70 32 104 52 102 62 -5 23 -19 21 -88 -11z"/>
<path d="M2966 3841 c-6 -9 224 -184 259 -198 9 -3 15 1 15 10 0 8 -55 54
-122 102 -136 97 -143 101 -152 86z"/>
<path d="M3645 3758 c-10 -29 -21 -56 -24 -61 -4 -4 -32 6 -62 23 -62 34 -69
36 -69 15 0 -8 12 -18 28 -21 15 -4 44 -18 64 -32 20 -13 42 -22 49 -20 13 4
60 128 53 140 -12 18 -23 5 -39 -44z"/>
<path d="M2295 3651 c-176 -81 -374 -172 -440 -202 -95 -43 -121 -59 -123 -77
-4 -28 220 -368 248 -375 11 -3 172 66 412 177 473 218 489 226 502 249 13 20
14 16 -87 169 -38 57 -83 126 -100 153 -26 40 -38 50 -62 52 -20 1 -134 -46
-350 -146z m340 89 c15 -16 16 -22 5 -35 -18 -22 -64 -15 -69 9 -2 11 5 26 15
33 24 17 28 17 49 -7z m-99 -31 c4 -8 0 -9 -15 -4 -15 4 -21 2 -21 -9 0 -21
18 -30 35 -16 9 7 15 8 15 2 0 -5 -6 -15 -13 -21 -18 -14 -52 21 -44 44 7 17
33 20 43 4z m227 -102 c31 -45 59 -90 62 -98 6 -17 -23 -31 -588 -288 -158
-73 -293 -129 -299 -125 -19 12 -127 187 -122 196 4 6 25 18 48 27 22 10 176
80 341 156 165 75 338 154 385 176 47 21 92 39 101 39 10 0 40 -35 72 -83z
m-283 48 c14 -19 14 -19 -2 -6 -10 7 -18 18 -18 24 0 6 1 8 3 6 1 -2 9 -13 17
-24z"/>
<path d="M2582 3723 c2 -10 12 -18 23 -18 11 0 21 8 23 18 3 13 -3 17 -23 17
-20 0 -26 -4 -23 -17z"/>
<path d="M2673 3636 c-26 -12 -27 -19 -13 -46 7 -13 6 -19 -5 -23 -9 -4 -12
-1 -8 9 3 9 -2 14 -15 14 -39 0 -35 -23 14 -89 3 -3 113 37 123 46 5 3 -47 80
-63 91 -6 4 -21 3 -33 -2z m57 -80 c0 -6 -11 5 -25 24 -14 19 -25 36 -25 39 1
10 50 -53 50 -63z"/>
<path d="M2555 3546 c-18 -13 -18 -14 6 -44 27 -34 37 -38 62 -19 15 11 15 14
-4 45 -23 35 -36 39 -64 18z m36 -28 c11 -21 11 -22 -4 -9 -10 7 -17 17 -17
22 0 15 9 10 21 -13z"/>
<path d="M2493 3529 c-29 -11 -29 -31 0 -65 19 -22 29 -26 50 -20 35 8 35 35
0 68 -22 20 -33 24 -50 17z m37 -50 c17 -30 6 -34 -14 -4 -9 14 -12 25 -7 25
6 0 15 -9 21 -21z"/>
<path d="M2687 3480 c-32 -15 -68 -30 -79 -34 -12 -3 -19 -8 -16 -11 6 -6 137
45 168 65 33 21 -15 8 -73 -20z"/>
<path d="M2041 3349 c-101 -49 -182 -92 -178 -95 6 -7 377 168 377 178 0 13
-9 9 -199 -83z"/>
<path d="M2085 3313 c-211 -100 -211 -100 -203 -108 5 -5 384 171 402 186 30
26 -20 7 -199 -78z"/>
<path d="M2023 3231 c-66 -31 -119 -59 -117 -62 3 -6 239 94 252 106 2 2 0 5
-5 7 -4 3 -63 -21 -130 -51z"/>
<path d="M1995 3623 c-165 -74 -315 -141 -334 -149 -18 -9 -31 -17 -28 -20 4
-4 653 281 666 292 23 21 -48 -8 -304 -123z"/>
<path d="M3750 3670 c0 -5 4 -10 9 -10 6 0 13 5 16 10 3 6 -1 10 -9 10 -9 0
-16 -4 -16 -10z"/>
<path d="M3500 3651 c0 -10 103 -71 120 -71 23 0 7 19 -41 49 -50 31 -79 39
-79 22z"/>
<path d="M3727 3646 c-4 -9 65 -62 199 -156 112 -79 204 -144 204 -146 0 -2
-8 -19 -17 -38 l-17 -36 -30 24 c-17 12 -109 75 -204 140 -136 92 -174 113
-178 101 -4 -9 -5 -17 -3 -19 38 -34 422 -276 428 -270 13 15 103 265 98 271
-6 5 -37 -61 -37 -78 0 -15 -10 -11 -71 33 -33 22 -62 39 -65 36 -5 -5 99 -84
120 -91 5 -2 2 -16 -7 -32 -9 -17 -16 -25 -17 -18 -1 27 -395 300 -403 279z"/>
<path d="M3704 3589 c-8 -14 -15 -9 185 -143 96 -64 171 -116 166 -116 -4 0 0
-9 10 -20 10 -11 23 -20 28 -20 6 0 2 9 -7 19 -17 19 -17 19 5 14 14 -4 20 -2
16 5 -7 10 -383 272 -391 272 -3 0 -8 -5 -12 -11z"/>
<path d="M2750 3257 c-284 -130 -322 -148 -318 -152 5 -5 447 192 463 206 19
18 -12 6 -145 -54z"/>
<path d="M2920 3225 c-41 -19 -83 -38 -92 -44 -23 -14 -23 -44 0 -64 17 -16
24 -15 103 21 124 54 124 54 109 83 -13 23 -30 39 -40 38 -3 0 -39 -16 -80
-34z"/>
<path d="M2685 3118 c-98 -42 -106 -51 -74 -84 l26 -26 82 38 c44 20 81 41 81
46 0 12 -31 58 -39 57 -3 0 -37 -14 -76 -31z"/>
<path d="M3025 3091 c-56 -23 -85 -40 -85 -51 0 -5 10 -21 23 -36 l24 -27 72
28 c40 16 75 35 78 42 3 7 -2 24 -11 38 -19 29 -43 30 -101 6z"/>
<path d="M2458 3013 c-43 -20 -78 -41 -78 -48 0 -6 10 -21 23 -33 l22 -21 61
27 c33 15 71 34 84 43 22 15 23 16 5 42 -9 15 -22 27 -29 27 -6 -1 -46 -17
-88 -37z"/>
<path d="M2815 2999 c-38 -16 -74 -34 -78 -38 -5 -5 -1 -21 9 -36 14 -22 23
-26 48 -22 41 7 146 53 146 65 0 12 -39 62 -48 61 -4 0 -38 -14 -77 -30z m45
-29 c0 -5 -4 -10 -10 -10 -5 0 -10 5 -10 10 0 6 5 10 10 10 6 0 10 -4 10 -10z"/>
<path d="M2250 3007 c-172 -78 -212 -98 -208 -102 3 -3 61 21 129 54 68 33
120 59 114 60 -5 0 -21 -5 -35 -12z"/>
<path d="M3107 2960 c-69 -27 -77 -36 -66 -69 5 -15 22 -43 37 -61 l28 -32 77
32 c49 20 77 38 77 47 0 20 -37 80 -53 86 -7 2 -46 -9 -86 -25 -40 -16 -75
-27 -77 -25 -2 2 27 16 66 31 38 15 70 30 70 32 0 8 -26 3 -73 -16z m53 -75
c0 -9 -6 -12 -15 -9 -8 4 -12 10 -9 15 8 14 24 10 24 -6z"/>
<path d="M2211 2910 c-130 -61 -140 -70 -117 -104 9 -14 23 -26 31 -26 31 0
240 99 243 115 4 20 -24 65 -41 65 -6 -1 -59 -23 -116 -50z m134 19 c11 -17
-1 -21 -15 -4 -8 9 -8 15 -2 15 6 0 14 -5 17 -11z m-135 -64 c0 -2 -9 -9 -20
-15 -12 -6 -20 -7 -20 -1 0 5 8 12 18 14 9 3 18 5 20 6 1 0 2 -1 2 -4z"/>
<path d="M2611 2914 c-29 -13 -62 -24 -72 -24 -11 0 -19 -4 -19 -10 0 -5 6
-10 14 -10 7 0 16 -9 19 -20 3 -11 13 -23 22 -26 21 -8 155 44 155 60 0 21
-31 56 -48 55 -9 0 -41 -11 -71 -25z"/>
<path d="M2920 2893 c-60 -24 -102 -44 -97 -49 3 -3 27 4 52 15 26 12 53 21
59 20 6 0 -17 -14 -52 -30 l-63 -29 18 -31 c33 -56 50 -69 80 -59 70 20 128
49 131 64 6 28 -45 86 -76 86 -21 0 -24 2 -12 10 12 8 11 10 -5 9 -11 0 -27
-3 -35 -6z m27 -85 c-3 -8 -6 -5 -6 6 -1 11 2 17 5 13 3 -3 4 -12 1 -19z"/>
<path d="M2683 2799 c-35 -11 -63 -24 -63 -30 0 -6 8 -6 21 1 11 7 23 10 25 7
3 -2 -13 -12 -36 -21 -22 -9 -40 -19 -40 -23 0 -3 11 -26 25 -50 31 -52 49
-54 138 -17 89 37 95 44 68 88 -21 33 -57 67 -71 65 -3 0 -33 -9 -67 -20z m42
-68 c3 -5 1 -12 -5 -16 -5 -3 -10 1 -10 9 0 18 6 21 15 7z"/>
<path d="M2288 2768 c-54 -22 -98 -46 -98 -52 1 -6 11 -23 23 -38 l22 -27 95
40 c115 48 128 59 112 94 -16 34 -39 32 -154 -17z"/>
<path d="M3235 2790 c-11 -5 -38 -16 -59 -25 -67 -27 -32 -27 39 0 37 14 69
24 71 22 2 -2 -27 -16 -66 -31 -38 -15 -70 -33 -70 -40 0 -7 14 -32 30 -55 34
-46 28 -46 127 -9 72 26 80 39 53 83 -37 59 -76 77 -125 55z m35 -92 c0 -4 -4
-8 -9 -8 -6 0 -12 4 -15 8 -3 5 1 9 9 9 8 0 15 -4 15 -9z"/>
<path d="M3606 2767 c3 -10 9 -15 12 -12 3 3 0 11 -7 18 -10 9 -11 8 -5 -6z"/>
<path d="M2995 2695 c-33 -14 -61 -25 -62 -25 -2 0 -3 -4 -3 -10 0 -11 16 -5
100 33 71 33 43 34 -35 2z"/>
<path d="M2998 2667 l-68 -32 23 -39 c35 -61 44 -63 128 -30 42 16 75 36 77
45 5 25 -41 84 -68 86 -14 2 -55 -12 -92 -30z m57 -47 c3 -5 2 -10 -4 -10 -5
0 -13 5 -16 10 -3 6 -2 10 4 10 5 0 13 -4 16 -10z"/>
<path d="M2365 2636 c-59 -25 -101 -49 -103 -59 -4 -18 41 -93 60 -100 26 -8
238 84 238 104 0 7 -11 32 -25 56 -18 30 -32 43 -48 43 -12 -1 -67 -20 -122
-44z m75 -69 c0 -5 -6 -7 -12 -4 -7 2 -11 12 -10 22 3 17 2 17 -15 4 -17 -13
-17 -13 -4 4 14 18 16 18 28 1 7 -10 13 -22 13 -27z m-62 -12 c-3 -3 -9 2 -12
12 -6 14 -5 15 5 6 7 -7 10 -15 7 -18z"/>
<path d="M2781 2615 c-61 -22 -98 -45 -74 -45 11 0 154 57 162 65 11 11 -28 2
-88 -20z"/>
<path d="M3370 2621 c-14 -5 -44 -18 -67 -30 -36 -18 -43 -26 -43 -51 0 -43
81 -197 133 -252 52 -57 83 -61 163 -24 53 25 64 39 64 86 0 53 -188 289 -222
279 -2 0 -14 -4 -28 -8z m77 -43 c55 -58 163 -212 163 -233 0 -34 -27 -62 -77
-79 -71 -24 -83 -21 -138 37 -55 59 -131 213 -120 247 7 22 80 60 116 60 15 0
37 -12 56 -32z"/>
<path d="M3454 2435 c-5 -12 -14 -15 -35 -11 -16 3 -31 2 -33 -3 -3 -5 8 -11
24 -15 27 -5 29 -8 20 -31 -10 -25 -9 -26 28 -20 20 4 43 8 50 10 17 6 15 22
-3 22 -8 0 -12 -4 -9 -9 3 -4 -6 -8 -20 -8 -29 0 -31 6 -16 46 6 15 8 29 6 32
-3 3 -9 -3 -12 -13z"/>
<path d="M2783 2587 c-47 -20 -73 -37 -73 -47 0 -27 49 -90 71 -90 28 0 169
60 169 72 0 31 -55 99 -79 97 -9 -1 -49 -15 -88 -32z m67 -46 c0 -5 -7 -11
-15 -15 -15 -5 -20 5 -8 17 9 10 23 9 23 -2z"/>
<path d="M3113 2513 c-83 -33 -81 -49 2 -18 36 14 71 25 78 25 6 -1 -23 -14
-65 -31 -43 -17 -78 -34 -78 -38 0 -4 14 -29 30 -55 34 -54 33 -53 135 -15 63
23 69 41 33 92 -22 32 -58 66 -68 66 -3 0 -33 -11 -67 -26z m62 -91 c-8 -8
-25 10 -19 20 4 6 9 5 15 -3 4 -7 6 -15 4 -17z"/>
<path d="M2490 2469 c-116 -50 -126 -58 -110 -90 25 -48 61 -89 79 -89 10 0
62 19 117 43 72 32 100 49 101 63 3 22 -61 114 -80 114 -6 0 -55 -19 -107 -41z
m34 -36 c-10 -7 -27 -13 -38 -13 -17 0 -14 5 14 24 36 24 59 14 24 -11z m16
-27 c0 -2 3 -11 6 -20 9 -23 -13 -20 -26 4 -9 16 -8 20 5 20 8 0 15 -2 15 -4z"/>
<path d="M2895 2423 c-66 -27 -71 -30 -63 -38 6 -6 126 42 143 57 17 15 -19 7
-80 -19z"/>
<path d="M2912 2401 c-34 -15 -67 -32 -72 -37 -11 -11 26 -82 52 -97 12 -8 34
-4 87 18 39 15 76 34 82 41 22 26 -27 105 -64 103 -12 0 -50 -13 -85 -28z m61
-57 c-4 -13 -26 -11 -30 3 -2 6 4 10 14 9 10 -2 17 -7 16 -12z"/>
<path d="M3857 2403 c5 -27 1 -37 -25 -60 -17 -16 -57 -39 -89 -53 -32 -13
-182 -80 -333 -148 -414 -187 -466 -210 -585 -263 -60 -27 -101 -49 -91 -49
18 0 220 87 433 186 50 23 214 97 365 165 150 67 285 131 300 141 33 23 45 60
30 91 -9 19 -10 18 -5 -10z"/>
<path d="M3213 2319 c-29 -11 -53 -24 -53 -29 0 -5 28 1 63 14 34 13 69 26 77
29 9 3 5 6 -10 6 -14 0 -49 -9 -77 -20z"/>
<path d="M2629 2282 c-124 -54 -135 -62 -119 -93 17 -33 61 -79 76 -79 20 0
197 79 213 95 12 12 10 21 -15 62 -17 27 -38 49 -49 50 -11 2 -59 -14 -106
-35z m46 -53 c11 -16 1 -19 -13 -3 -7 8 -8 14 -3 14 5 0 13 -5 16 -11z m-52
-14 c-3 -9 -8 -14 -10 -11 -3 3 -2 9 2 15 9 16 15 13 8 -4z m32 -4 c3 -5 1
-12 -5 -16 -5 -3 -10 1 -10 9 0 18 6 21 15 7z"/>
<path d="M3230 2296 c-30 -13 -56 -29 -58 -34 -4 -14 22 -63 46 -85 19 -17 22
-17 75 3 31 12 66 29 78 39 l22 17 -27 42 c-31 50 -54 53 -136 18z m60 -58 c0
-6 -6 -5 -15 2 -8 7 -15 14 -15 16 0 2 7 1 15 -2 8 -4 15 -11 15 -16z"/>
<path d="M3015 2238 c-44 -17 -87 -37 -95 -45 -17 -18 -20 -19 91 26 91 37 94
39 88 45 -2 2 -40 -9 -84 -26z"/>
<path d="M3020 2209 c-51 -22 -96 -41 -98 -44 -8 -8 29 -83 49 -101 17 -16 23
-15 97 16 43 18 89 40 102 50 l23 18 -26 45 c-15 24 -33 47 -40 50 -7 3 -56
-13 -107 -34z m68 -46 c-3 -19 -28 -31 -28 -13 0 6 5 8 12 4 8 -5 9 -2 5 9 -3
10 -2 17 4 17 6 0 9 -8 7 -17z"/>
<path d="M2760 2106 c-86 -36 -140 -65 -140 -77 0 -17 27 -63 49 -83 25 -22
46 -18 148 29 67 31 73 36 73 64 0 31 -42 91 -63 91 -7 -1 -37 -11 -67 -24z
m13 -70 c8 -19 -31 -32 -46 -17 -9 9 -8 14 3 21 22 14 37 12 43 -4z"/>
<path d="M1470 3039 c0 -6 8 -24 17 -39 13 -23 20 -27 35 -19 24 13 23 24 -4
49 -24 22 -48 27 -48 9z"/>
<path d="M1426 3014 c-4 -11 -13 -14 -31 -10 -20 5 -23 3 -18 -11 5 -15 3 -16
-8 -5 -18 17 -54 15 -69 -4 -11 -13 -10 -19 9 -37 l22 -22 -6 26 c-4 17 -2 30
6 35 9 5 10 2 6 -10 -9 -23 9 -56 31 -56 25 1 49 23 45 40 -3 10 -1 9 7 -2 13
-22 30 -23 55 -4 18 13 18 14 -4 45 -25 35 -36 39 -45 15z m39 -44 c-3 -5 -14
-10 -23 -10 -15 0 -15 2 -2 10 20 13 33 13 25 0z"/>
<path d="M1247 2963 c-14 -13 -7 -31 11 -29 20 3 30 36 9 36 -7 0 -17 -3 -20
-7z"/>
<path d="M1175 2934 c-14 -15 -14 -18 7 -38 13 -11 23 -28 23 -36 0 -10 8 -14
25 -12 33 5 35 8 20 27 -14 17 0 21 17 4 21 -21 50 24 33 51 -10 17 -31 3 -23
-15 9 -25 -25 -17 -49 10 -25 29 -31 30 -53 9z m45 -18 c0 -2 -7 -7 -16 -10
-8 -3 -12 -2 -9 4 6 10 25 14 25 6z"/>
<path d="M1555 2851 c-192 -78 -285 -120 -268 -120 6 -1 49 15 95 35 45 20
146 61 223 91 77 30 142 57 144 59 16 15 -47 -6 -194 -65z"/>
<path d="M1396 2832 c-71 -31 -132 -63 -134 -71 -3 -8 12 -4 39 12 24 14 85
42 134 62 83 34 123 56 100 54 -6 0 -68 -26 -139 -57z"/>
<path d="M984 2809 c37 -42 96 -102 131 -133 35 -31 87 -88 116 -126 62 -84
76 -93 20 -12 -22 31 -107 122 -187 202 -96 94 -124 118 -80 69z"/>
<path d="M2162 2213 c-45 -19 -80 -38 -78 -41 5 -4 174 64 185 74 15 14 -36
-2 -107 -33z"/>
<path d="M2263 1900 c-34 -16 -65 -25 -69 -22 -3 4 -1 -3 5 -15 13 -26 23 -31
15 -8 -4 8 -2 15 4 15 5 0 38 13 73 30 35 16 57 29 49 29 -8 0 -43 -13 -77
-29z"/>
<path d="M3000 1716 c-23 -13 -218 -94 -264 -110 -10 -3 -16 -9 -13 -12 6 -6
180 61 272 106 33 15 53 28 45 29 -8 0 -26 -6 -40 -13z"/>
<path d="M1431 2045 c15 -37 61 -115 68 -115 5 0 -6 25 -24 56 -33 54 -52 80
-44 59z"/>
<path d="M1339 1909 l-24 -21 28 16 c15 9 32 14 37 11 19 -12 9 -32 -30 -61
-22 -16 -40 -32 -40 -36 0 -17 19 -14 70 13 30 15 48 28 40 28 -8 1 -30 -8
-49 -20 -45 -28 -52 -16 -7 13 28 18 36 29 34 48 -4 32 -29 36 -59 9z"/>
<path d="M1128 1889 c-27 -17 -48 -35 -48 -38 0 -4 16 -26 36 -49 36 -43 57
-52 70 -30 5 8 2 9 -9 5 -9 -3 -22 0 -29 7 -35 37 -49 59 -41 65 4 4 21 17 37
29 32 25 46 19 77 -31 9 -16 19 -24 23 -19 5 9 -50 92 -62 92 -4 0 -28 -14
-54 -31z"/>
<path d="M1260 1872 c0 -5 10 -17 22 -28 l21 -19 -18 28 c-18 28 -25 33 -25
19z"/>
<path d="M1730 1588 c-52 -28 -144 -77 -205 -109 -60 -32 -104 -59 -96 -59 19
0 401 205 401 216 0 6 1 7 -100 -48z"/>
<path d="M1755 1432 c-185 -107 -249 -147 -224 -139 20 6 380 215 394 228 20
19 -6 6 -170 -89z"/>
<path d="M1904 1464 c-32 -20 -66 -41 -74 -48 -8 -7 -45 -29 -82 -50 -37 -20
-71 -42 -75 -49 -4 -7 3 -5 17 4 14 9 82 46 152 83 70 37 130 71 133 76 14 23
-18 16 -71 -16z"/>
<path d="M1942 1432 c-50 -24 -69 -52 -36 -52 19 0 104 49 104 60 0 19 -18 17
-68 -8z"/>
<path d="M2000 1381 c-36 -21 -131 -74 -212 -118 -118 -65 -150 -78 -158 -68
-9 11 6 23 67 59 155 89 166 97 156 107 -7 7 -31 0 -74 -21 -54 -27 -174 -95
-188 -107 -3 -2 8 -17 25 -33 l30 -30 219 121 c121 66 222 122 224 125 16 16
-35 -4 -89 -35z"/>
<path d="M1460 1400 c-13 -8 -12 -13 7 -32 18 -17 25 -20 35 -10 17 17 -20 55
-42 42z m34 -31 c-8 -13 -24 -1 -24 18 0 13 3 13 15 3 8 -7 12 -16 9 -21z"/>
<path d="M3710 2001 c5 -11 10 -37 10 -57 l0 -38 -45 44 c-56 55 -58 44 -4
-19 l42 -48 20 20 c16 16 18 23 8 38 -18 30 -13 34 12 11 22 -21 26 -22 58 -8
19 9 28 15 22 16 -7 0 -13 7 -13 15 0 22 -21 18 -27 -5 -7 -28 -18 -25 -50 15
-30 38 -50 47 -33 16z"/>
<path d="M3775 1864 c-153 -62 -185 -77 -181 -81 2 -2 32 8 67 23 35 15 100
40 144 55 44 16 69 28 55 28 -14 0 -52 -12 -85 -25z"/>
<path d="M1479 1684 c-10 -12 -9 -18 3 -30 12 -13 20 -14 37 -5 30 17 27 33
-5 21 -35 -14 -42 -12 -21 4 10 8 14 17 9 20 -5 3 -15 -1 -23 -10z"/>
<path d="M1336 1583 c21 -38 26 -40 45 -16 12 15 12 16 -4 10 -13 -5 -25 0
-39 15 l-19 23 17 -32z"/>
</g>
</svg>