<svg version="1.1" id="Ebene_1" xmlns:x="ns_extend;" xmlns:i="ns_ai;" xmlns:graph="ns_graphs;" xmlns="http://www.w3.org/2000/svg" xmlns:xlink="http://www.w3.org/1999/xlink" x="0px" y="0px" viewBox="0 0 228.3 69" style="enable-background:new 0 0 228.3 69;" xml:space="preserve">
 <style type="text/css">
  .st0{fill-rule:evenodd;clip-rule:evenodd;fill:#005386;}
 </style>
 <metadata>
  <sfw xmlns="ns_sfw;">
   <slices>
   </slices>
   <sliceSourceBounds bottomLeftOrigin="true" height="69" width="228.3" x="-60.5" y="-18">
   </sliceSourceBounds>
  </sfw>
 </metadata>
 <g id="Symbols">
  <g id="DESKTOP_menu_notif_final" transform="translate(-71.000000, -13.000000)">
   <g id="MENU">
    <g id="logo" transform="translate(71.000000, 13.000000)">
     <path id="Fill-1" class="st0" d="M32,0c6-0.2,13,1.1,14.3,5.1C48.4,12,37.5,22,28.2,26.9c-2.3,1.3-3.6,1.5-4.3,1.5
					s-0.6-0.6-0.4-1.1c0.4-0.6,1.9-2.1,3.8-3.8C38,15.2,41.4,9,39.5,6.6c-1.3-1.5-6.6-2.8-12.4-2.8c-1.5,0-5.6,0.4-6-1.1
					C20.9,1.7,26.2,0.2,32,0">
     </path>
     <path id="Fill-3" class="st0" d="M19.6,31.6c5.1-0.2,11.3,0.6,14.7,3.2c1.7,1.3,3,3.8,2.1,6.6c-1.9,7.9-9.4,17.5-26.1,24.8
					C5.1,68.6,1,69.4,0.2,68.8c-0.9-0.6,1.7-6,2.6-7.7c2.6-5.6,6-11.1,9.2-16c1.3-1.9,3-5.1,4.7-4.7c1.5,0.2-0.2,3.6-1.5,5.8
					c-1.9,3.6-7.3,13.7-5.6,14.3c3.8,1.3,22-12.6,19.4-20.3c-1.3-3.6-9.2-3.8-14.1-3.8c-2.3,0-7.3,0.6-7.5-1.3
					C7.2,33.6,14.9,31.8,19.6,31.6">
     </path>
     <path id="Fill-5" class="st0" d="M58.9,23.1c3,0.6,5.6,1.1,6.2,2.3c0.6,1.5-2.8,1.5-4.3,1.5c-8.1,0.2-12.8,0.2-13.2,3
					c-0.2,3.4,3.4,7,7,12c3.4,4.5,7.3,9,6.2,13.2c-1.3,5.1-7.7,6.4-13.9,6.4c-5.8,0-11.3-0.9-13.7-1.3c-3-0.6-2.3-1.9-1.7-2.3
					c0.9-0.4,5.8-0.4,9.2-0.6c2.8-0.4,10.9-0.4,12.2-2.6c1.5-2.6-2.3-6.8-5.8-11.5c-4.3-5.8-9.2-11.5-6.6-16
					C44,21.8,53.6,22,58.9,23.1">
     </path>
     <path id="Fill-6" class="st0" d="M184.5,38.7c6.4,0,9-2.1,10-7.3l1.5-7.9c0-0.4-0.2-0.6-0.6-0.6h-3.2l-0.9,4.5l-0.4,2.3
					l-0.4,2.1c-0.6,3-2.3,4.3-5.6,4.3c-3.4,0-4.5-1.3-3.8-4.3c0,0,0.2-0.6,0.2-0.9l0.6-3.6l0.9-4.5h-3.2c-0.4,0-0.9,0.2-0.9,0.6
					l-1.5,7.9C176.2,37,178.9,38.7,184.5,38.7L184.5,38.7z M74.5,47.4c-0.4,2.1,1.3,3.2,4.7,5.3c3.8,2.3,4.7,2.6,4.3,3.8
					c-0.2,1.1-1.3,1.1-3,1.1h-6.8c-0.9,0-1.3,0.2-1.3,1.1L72.1,60h8.5c3.8,0,6.4-0.2,7.3-2.6c0.4-1.1,0.4-2.3-0.6-3.6
					c-0.6-0.6-1.3-1.1-2.3-1.7c-4.9-2.8-6.2-3-6-4.5c0.2-0.9,0.6-0.9,2.6-0.9h5.8c0.9,0,1.3-0.2,1.3-1.1l0.2-1.5h-7.3
					C77.7,44.4,75.1,44.4,74.5,47.4L74.5,47.4z M112.5,47.4c-0.4,2.1,1.3,3.2,4.7,5.3c3.8,2.3,4.7,2.6,4.3,3.8
					c-0.2,1.1-1.3,1.1-3,1.1h-6.8c-0.9,0-1.3,0.2-1.3,1.1l-0.2,1.5h8.5c3.8,0,6.4-0.2,7.3-2.6c0.4-1.1,0.4-2.3-0.6-3.6
					c-0.6-0.6-1.3-1.1-2.3-1.7c-4.9-2.8-6.2-3-6-4.5c0.2-0.9,0.6-0.9,2.6-0.9h5.8c0.9,0,1.3-0.2,1.3-1.1l0.2-1.5h-7.3
					C115.5,44.4,113.2,44.4,112.5,47.4L112.5,47.4z M208.4,47.4c-0.4,2.1,1.3,3.2,4.7,5.3c3.8,2.3,4.7,2.6,4.3,3.8
					c-0.2,1.1-1.3,1.1-3,1.1h-6.8c-0.9,0-1.3,0.2-1.3,1.1l-0.2,1.5h8.5c3.8,0,6.4-0.2,7.3-2.6c0.4-1.1,0.4-2.3-0.6-3.6
					c-0.6-0.6-1.3-1.1-2.3-1.7c-4.9-2.8-6.2-3-6-4.5c0.2-0.9,0.6-0.9,2.6-0.9h5.8c0.9,0,1.3-0.2,1.3-1.1l0.2-1.5h-7.3
					C211.4,44.4,209,44.4,208.4,47.4L208.4,47.4z M151.8,35.7c0.4-1.1,0.4-2.3-0.6-3.6c-0.6-0.6-1.3-1.1-2.3-1.7
					c-4.9-2.8-6.2-3-6-4.5c0.2-0.9,0.6-0.9,2.6-0.9h5.8c0.9,0,1.3-0.2,1.3-1.1l0.2-1.5h-7.3c-4.1,0-6.6,0-7.3,3
					c-0.4,2.1,1.3,3.2,4.7,5.3c3.8,2.3,4.7,2.6,4.3,3.8c-0.2,1.1-1.3,1.1-3,1.1h-6.8c-0.9,0-1.3,0.2-1.3,1.1l-0.2,1.5h8.5
					C148.4,38.5,150.7,38,151.8,35.7L151.8,35.7z M133.4,35.7c0.4-1.1,0.4-2.3-0.6-3.6c-0.6-0.6-1.3-1.1-2.3-1.7
					c-4.9-2.8-6.2-3-6-4.5c0.2-0.9,0.6-0.9,2.6-0.9h5.8c0.9,0,1.3-0.2,1.3-1.1l0.2-1.5H127c-4.1,0-6.6,0-7.3,3
					c-0.4,2.1,1.3,3.2,4.7,5.3c3.8,2.3,4.7,2.6,4.3,3.8c-0.2,1.1-1.3,1.1-3,1.1h-6.6c-0.9,0-1.3,0.2-1.3,1.1l-0.2,1.5h8.5
					C130,38.5,132.6,38,133.4,35.7L133.4,35.7z M213.3,22.7c-0.9,0-1.3,0.2-1.3,0.9l-0.2,1.5h6.2l-2.6,13.2h2.8
					c0.9,0,1.3-0.2,1.3-1.1l2.3-12.2h5.1c0.6,0,1.1-0.4,1.1-0.9l0.2-1.5H213.3L213.3,22.7z M79.2,27.1c-0.4,0-0.6,0.2-0.6,0.4
					l-2.1,10.7h9.2c5.1,0,8.8-1.9,9.8-7.9c0.9-4.5-1.1-7.7-6.4-7.7H77.9v0.2c-0.2,1.1-0.2,2.1,1.7,2.1h8.1c3.8,0,4.5,1.9,3.6,5.3
					c-0.9,3.4-2.1,5.1-5.1,5.3h-5.6l1.7-9h-3.2V27.1z M211.2,37c0.2-0.6-0.2-0.9-0.6-0.9h-8.3l2.6-12.6c0-0.2-0.2-0.4-0.4-0.4h-3.4
					l-3,15.6h13.2L211.2,37L211.2,37z M186.2,44.4h-3.6l-6.8,6l-4.5-6.2h-3.6c-0.6,0-0.9,0.4-1.1,1.1l-2.8,14.5h3
					c0.6,0,1.1-0.2,1.1-0.9l2.1-10.9l3.4,4.9c0,0.2,0.4,0.4,0.9,0.4h1.5c0.4,0,0.9-0.2,1.1-0.4l5.3-4.9L180,59
					c-0.2,0.6,0.2,0.9,0.9,0.9h3l2.8-14.5C186.8,44.9,186.6,44.4,186.2,44.4L186.2,44.4z M148.6,45.5L145.8,60h14.5l0.2-1.5
					c0.2-0.6,0-0.9-0.9-0.9h-9.6l0.9-4.3h8.5c0.2,0,0.4-0.2,0.4-0.4l0.4-1.7c0-0.2,0-0.4-0.2-0.4h-8.5l0.9-4.3h9.2
					c0.4,0,0.9,0,1.1-0.6l0.4-1.9h-13C149.2,44.4,148.8,44.7,148.6,45.5L148.6,45.5z M191.5,45.5L188.8,60h14.5l0.2-1.5
					c0.2-0.6,0-0.9-0.9-0.9H193l0.9-4.3h8.5c0.2,0,0.4-0.2,0.4-0.4l0.4-1.7c0-0.2,0-0.4-0.2-0.4h-8.5l0.9-4.3h9.2
					c0.4,0,0.9,0,1.1-0.6l0.4-1.9h-13C192.2,44.4,191.8,44.7,191.5,45.5L191.5,45.5z M104.8,44.9l-1.3,7c-2.3,0.6-8.8,2.1-7.7-3
					l0.9-4.7h-3.2c-0.4,0-0.6,0.2-0.6,0.4L92,48.9c-1.5,8.1,6.2,7,11.1,5.6L102,60h2.8c0.9,0,1.3-0.2,1.3-1.1l2.8-14.5h-3.4
					C105.3,44.4,105,44.7,104.8,44.9L104.8,44.9z M146.3,45.9l0.2-1.5h-15c-0.9,0-1.3,0.2-1.3,0.9l-0.4,1.5h6.2L133.4,60h2.8
					c0.9,0,1.3-0.2,1.3-1.1l2.3-12.2h5.1C145.8,46.8,146,46.6,146.3,45.9L146.3,45.9z M103.1,29.3c0.6-3,2.3-4.1,5.6-4.1
					c3.4,0,4.3,1.3,3.6,4.1c0,0-0.2,0.6-0.2,0.9c0,0.4-0.2,1.1-1.1,1.1h-8.3L103.1,29.3L103.1,29.3z M98.4,38.5h3l0.9-4.5h9.2
					l-0.9,4.5h3c0.4,0,0.9-0.2,0.9-0.6l1.5-7.9c1.1-6-2.3-7.3-6.8-7.3c-5.6,0-8.5,1.3-9.8,7.3l-1.5,7.7C97.8,38.3,98,38.5,98.4,38.5
					L98.4,38.5z M160.6,29.3c0.6-3,2.3-4.1,5.6-4.1c3.4,0,4.3,1.3,3.6,4.1c0,0-0.2,0.6-0.2,0.9c0,0.4-0.2,1.1-1.1,1.1h-8.3
					L160.6,29.3L160.6,29.3z M155.9,38.5h3l0.9-4.5h9.2l-0.9,4.5h3c0.4,0,0.9-0.2,0.9-0.6l1.5-7.9c1.1-6-2.3-7.3-6.8-7.3
					c-5.6,0-8.5,1.3-9.8,7.3l-1.5,7.7C155.2,38.3,155.4,38.5,155.9,38.5L155.9,38.5z">
     </path>
    </g>
   </g>
  </g>
 </g>
</svg>